<?xml version="1.0" encoding="utf-8"?>
<!-- Generator: Adobe Illustrator 25.2.3, SVG Export Plug-In . SVG Version: 6.00 Build 0)  -->
<svg version="1.1" id="Layer_2_1_" xmlns="http://www.w3.org/2000/svg" xmlns:xlink="http://www.w3.org/1999/xlink" x="0px" y="0px"
	 viewBox="0 0 1080 1350" style="enable-background:new 0 0 1080 1350;" xml:space="preserve">
<style type="text/css">
	.st0{fill:#06051E;}
	.st1{fill:#4102CD;}
	.st2{fill:#DF00E2;}
	.st3{fill:#4B3DEA;}
	.st4{fill:#FFFFFF;}
	.st5{fill:#633002;}
	.st6{fill:#D0874F;}
	.st7{fill:#FDDB8F;}
	.st8{fill:#633001;}
	.st9{font-family:'Menlo-Bold';}
	.st10{font-size:50px;}
	.st11{letter-spacing:17;}
	.st12{font-family:'Menlo-Regular';}
	.st13{font-size:84.9187px;}
	.st14{letter-spacing:1;}
	.st15{font-size:34.911px;}
	.st16{font-family:'Menlo-BoldItalic';}
	.st17{font-family:'Menlo-Italic';}
</style>
<rect x="-0.5" y="0" class="st0" width="1080.5" height="1350"/>
<g>
	<path class="st1" d="M92.2,1294.5h53.3v-245.1c0,0,4.8-59.1-53.3-59.1H67.5v54.1h25.5L92.2,1294.5z"/>
	<g>
		<path class="st2" d="M386,1129c8.9-14.7,13.4-32.8,13.4-54.2c0-23.3-7.7-43.2-22.3-57.7c-24.2-24-58.4-24.6-63-24.6H202.7v49.5
			h111.5l-0.1,0l0.2,0c1.1,0,11.3,0.4,20.6,5.1c7,3.6,15,9.9,15,27.7c0,15.9-3.7,27.5-10.9,34.5c-9.4,9.1-23.3,9.2-25.1,9.2l-0.3,0
			h-87.9l118,0.5C347.1,1119,366.4,1119.4,386,1129z"/>
		<path class="st1" d="M406.8,1143.7c-6.5-6.4-13.6-11.1-20.7-14.6c-3.7,6.1-8.1,11.7-13.4,16.6c-21.8,20.5-48.9,22.4-58.4,22.4
			c-0.9,0-1.6,0-2.2,0h-86.3l118.1,0.5l-0.1,0l0.2,0c1.1,0,11.3,0.4,20.6,5.1c7,3.6,15,9.9,15,27.7c0,15.9-3.7,27.5-10.9,34.5
			c-9.4,9.1-23.3,9.2-25.1,9.2l-0.3,0H225.8v49.5h115.9c0.6,0,1.3,0,2.2,0c9.5,0,36.7-1.9,58.4-22.4c17.8-16.7,26.8-40.5,26.8-70.8
			C429.1,1178,421.4,1158.1,406.8,1143.7z"/>
		<path class="st3" d="M314.2,1168.1c9.5,0,36.7-1.9,58.4-22.4c5.2-4.9,9.7-10.5,13.4-16.6c-17.1-9.9-28.5-11.1-42.3-11.1l-118,0.6
			v49.5H312C312.6,1168,313.3,1168.1,314.2,1168.1z"/>
	</g>
	<g>
		<polygon class="st4" points="573.1,1195.6 675.2,1142.4 675.4,1142.4 675.3,1142.4 675.4,1142.4 675.3,1142.4 573.1,1089.2 
			585.4,1118.1 470.8,1118.1 470.8,1166.6 585.4,1166.6 		"/>
	</g>
	<g id="s6Xni3.tif">
		<g>
			<path class="st5" d="M859.3,1294.3c-5.3-0.2-10.5-0.5-15.8-1c-6.8-0.7-13.5-1.6-20.2-2.9c-19-3.6-37.2-9.7-54.2-19.2
				c-10.8-6.1-20.7-13.2-29.2-22.3c-8.4-9-14.9-19.2-18.5-31.1c-1.9-6.2-2.9-12.6-2.9-19.1c0-7.5,0-14.9,0-22.4
				c0-12.6,3.5-24.1,9.9-34.9c6.1-10.2,14.2-18.7,23.5-26c9.2-7.2,19.2-13,29.8-17.7c0.7-0.3,0.9-0.6,0.7-1.4
				c-1.7-9-3.3-18-4.9-26.9c-1.7-9.5-3.4-19.1-5.2-28.6c-0.6-3.2-1-6.4-0.9-9.7c0.4-11.6,5-21.3,13.7-29c5.8-5.2,12.7-8.3,20.5-9.3
				c11.3-1.4,21.5,1.5,30.3,8.8c7.9,6.5,12.6,14.9,14.1,25c0.3,2,0.4,4,0.4,6c0,15.9,0,31.7,0,47.6c0,0.7,0.1,0.9,0.8,0.9
				c4.2-0.1,8.4-0.7,12.7-0.8c6.3-0.2,12.5-0.3,18.8,0.7c0.7,0.1,0.8-0.1,0.8-0.7c0-16-0.2-32,0-48.1c0.2-15.7,7.4-27.5,21-35.1
				c16.1-9,36.3-5.1,48.4,8.9c5.7,6.6,9.1,14.2,10,22.9c0.5,4.5,0.1,9-0.8,13.5c-1.6,8.5-3.1,16.9-4.6,25.4
				c-1.6,8.7-3.1,17.3-4.7,26c-0.2,0.9-0.3,1.7-0.5,2.6c-0.1,0.5,0,0.7,0.5,0.9c6,2.6,11.8,5.6,17.3,8.9
				c10.5,6.3,20.1,13.8,28.2,23.1c7.3,8.3,12.9,17.6,16.2,28.3c1.5,4.8,2.3,9.7,2.6,14.7c0,0.2-0.1,0.4,0.1,0.5c0,9.6,0,19.1,0,28.7
				c-0.2,0.1-0.1,0.4-0.1,0.6c-0.4,6.2-1.6,12.3-3.7,18.2c-4.5,12.7-12.2,23.2-21.9,32.3c-7.1,6.7-15.1,12-23.4,16.9
				c-14.9,8.7-30.8,14.7-47.5,18.7c-9.1,2.2-18.4,3.7-27.7,4.7c-5.8,0.6-11.6,1-17.4,1.2c-2,0-4.1,0-6.1,0.1c-1.4,0-2.8,0-4.2,0
				C863.4,1294.3,861.4,1294.3,859.3,1294.3z M730.8,1184.3c0,5.2,0,10.3,0,15.5c0,4.2,0.6,8.2,1.6,12.3c2,8,5.7,15.2,10.6,21.8
				c7.1,9.5,15.9,17,25.8,23.4c11.6,7.4,24.2,12.9,37.4,17c10,3.1,20.1,5.3,30.4,6.8c6.5,0.9,13,1.5,19.6,1.9
				c9,0.5,17.9,0.4,26.9-0.2c7.5-0.5,15-1.4,22.4-2.8c13.1-2.3,25.8-5.9,38.1-10.9c12.5-5.2,24.1-11.7,34.5-20.4
				c7.2-6.1,13.6-12.9,18.6-21c3.8-6.3,6.5-13,7.8-20.3c0.5-2.8,0.7-5.5,0.8-8.3c0-0.2-0.2-0.7,0.3-0.6c0.8,0.1,0.6-0.4,0.6-0.8
				c0-6.7,0-13.3,0-19.9c0-0.8-0.2-1.1-0.9-0.9c-0.1-2.9-0.4-5.9-1-8.7c-1.4-7.1-4.2-13.7-7.9-19.9c-4.7-8-10.9-14.7-18-20.6
				c-7-5.9-14.7-10.7-22.9-14.8c-5.4-2.7-10.9-5.2-16.5-7.2c-0.4-0.2-0.6-0.3-0.5-0.8c0.9-4.7,1.7-9.4,2.6-14.1
				c1.1-6.3,2.3-12.6,3.4-18.9c0.8-4.5,1.6-8.9,2.4-13.4c1-5.7,2-11.4,3.1-17.2c0.7-3.5,1.1-7.1,0.8-10.7c-0.3-3.8-1.2-7.4-2.9-10.8
				c-4.8-9.2-12.3-14.3-22.6-15.2c-5.6-0.5-10.8,0.7-15.7,3.5c-4.7,2.7-8.2,6.4-10.7,11.2c-2.1,4-3,8.2-3,12.7c0,20.3,0,40.7,0,61
				c0,0.2,0,0.4,0,0.6c0,0.3-0.1,0.4-0.4,0.4c-3.4-0.8-6.8-0.9-10.3-0.8c-2,0-4,0-6-0.2c-4.8-0.4-9.7-0.8-14.5-0.7
				c-3,0.1-6,0.1-9,0.3c-2.4,0.2-4.7,0.7-7.1,0.7c-0.7,0-1.4,0.1-2.1,0.2c-2.4,0.2-4.7,0.6-7.1,0.7c-1.1,0-1,0.1-1-1
				c0-19.9,0-39.8,0-59.7c0-2.2-0.1-4.4-0.6-6.6c-1.4-6.1-4.6-11.2-9.5-15.2c-4.3-3.5-9.2-5.5-14.7-6c-4.2-0.4-8.2,0.1-12.1,1.6
				c-7.5,2.9-12.7,8.2-15.7,15.6c-1.8,4.5-2.4,9.2-1.6,14c0.6,3.7,1.4,7.4,2,11.1c1.3,7,2.5,14,3.8,21c1.1,5.9,2.2,11.8,3.2,17.7
				c1.1,6.3,2.2,12.5,3.4,18.8c0.1,0.7,0,1.1-0.7,1.4c-7.7,2.9-15.2,6.4-22.3,10.6c-9.6,5.6-18.5,12.3-26,20.6
				c-4.8,5.3-8.8,11.2-11.8,17.7c-2.7,5.7-4.3,11.8-4.8,18.1C730.6,1176.9,730.8,1180.6,730.8,1184.3z"/>
			<path class="st6" d="M730.8,1184.3c0-3.7-0.2-7.4,0.2-11.1c0.5-6.3,2.2-12.3,4.8-18.1c3-6.5,7-12.4,11.8-17.7
				c7.5-8.3,16.3-15,26-20.6c7.1-4.2,14.6-7.7,22.3-10.6c0.8-0.3,0.9-0.7,0.7-1.4c-1.2-6.2-2.3-12.5-3.4-18.8
				c-1.1-5.9-2.2-11.8-3.2-17.7c-1.3-7-2.5-14-3.8-21c-0.7-3.7-1.4-7.4-2-11.1c-0.8-4.8-0.3-9.5,1.6-14c3-7.4,8.2-12.6,15.7-15.6
				c3.9-1.5,7.9-2,12.1-1.6c5.5,0.5,10.4,2.5,14.7,6c4.9,4,8,9.1,9.5,15.2c0.5,2.2,0.6,4.4,0.6,6.6c0,19.9,0,39.8,0,59.7
				c0,1.1-0.1,1,1,1c2.4-0.1,4.8-0.4,7.1-0.7c0.7-0.1,1.4-0.2,2.1-0.2c2.4,0,4.7-0.5,7.1-0.7c3-0.2,6-0.2,9-0.3
				c4.9-0.1,9.7,0.3,14.5,0.7c2,0.2,4,0.2,6,0.2c3.5,0,6.9,0.1,10.3,0.8c0.4,0.1,0.4,0,0.4-0.4c0-0.2,0-0.4,0-0.6
				c0-20.3,0-40.7,0-61c0-4.5,1-8.7,3-12.7c2.5-4.8,6.1-8.5,10.7-11.2c4.9-2.8,10.1-4,15.7-3.5c10.3,0.9,17.9,6,22.6,15.2
				c1.7,3.4,2.6,7,2.9,10.8c0.3,3.6-0.2,7.1-0.8,10.7c-1.1,5.7-2.1,11.4-3.1,17.2c-0.8,4.5-1.6,8.9-2.4,13.4
				c-1.1,6.3-2.3,12.6-3.4,18.9c-0.8,4.7-1.7,9.4-2.6,14.1c-0.1,0.5,0.1,0.7,0.5,0.8c5.7,2.1,11.2,4.5,16.5,7.2
				c8.2,4.2,15.8,9,22.9,14.8c7.1,5.9,13.3,12.6,18,20.6c3.6,6.2,6.4,12.8,7.9,19.9c0.6,2.9,0.9,5.8,1,8.7c0,1.3,0,2.6-0.1,3.9
				c-0.2,3.3-0.7,6.5-1.5,9.7c-1.7,6.6-4.5,12.8-8.2,18.4c-3.8,5.8-8.3,10.8-13.4,15.5c-3.8,3.5-7.9,6.7-12.1,9.6
				c-6.5,4.4-13.4,8.2-20.6,11.4c-6.8,3.1-13.9,5.7-21.1,7.8c-9.5,2.9-19.2,4.9-29,6.3c-4.5,0.7-9,1.1-13.5,1.5
				c-4.1,0.3-8.2,0.5-12.3,0.6c-6.3,0.1-12.5,0.1-18.8-0.4c-2.3-0.2-4.6-0.3-6.8-0.5c-3.9-0.4-7.8-0.9-11.7-1.4
				c-5.5-0.8-10.9-1.9-16.3-3.1c-6.9-1.6-13.7-3.6-20.4-6c-6.5-2.4-12.9-5.1-19.1-8.3c-8-4.2-15.5-9-22.4-14.8
				c-4.1-3.4-7.9-7.2-11.4-11.3c-4.2-5-7.7-10.4-10.3-16.4c-1.6-3.7-2.9-7.6-3.6-11.6c-0.5-2.5-0.8-5.1-1-7.7c0,1.1-0.1,2.3,0,3.4
				C731.7,1184.2,731.5,1184.4,730.8,1184.3z M934.5,1171.1c0-3.2-0.4-6.3-1.3-9.4c-1.3-4.2-3.2-7.9-6.7-10.7
				c-3-2.4-6.4-3.3-10.1-2.2c-2.9,0.9-5.1,2.8-6.9,5.2c-3.3,4.5-4.8,9.7-5.1,15.2c-0.2,3.8,0.2,7.5,1.3,11.1c1.3,4.2,3.3,8,6.8,10.8
				c3.7,2.8,7.6,3.4,11.8,1.3c2.6-1.3,4.5-3.4,6-5.9C933.3,1181.7,934.4,1176.5,934.5,1171.1z M829.8,1170.5
				c0.1-3.2-0.5-6.7-1.7-10.1c-1.4-3.9-3.4-7.3-6.7-9.8c-2.3-1.7-4.9-2.6-7.8-2.2c-3.6,0.4-6.3,2.4-8.4,5.2c-3.5,4.4-5,9.5-5.4,14.9
				c-0.3,4.8,0.2,9.5,2,14.1c1.4,3.4,3.3,6.4,6.2,8.6c3.8,2.9,8.4,3.2,12.5,0.7c2.8-1.7,4.7-4.2,6.2-7
				C828.8,1180.5,829.8,1175.8,829.8,1170.5z"/>
			<path class="st7" d="M730.8,1184.3c0.7,0.1,1-0.2,0.9-0.9c-0.1-1.1,0-2.3,0-3.4c0.2,2.6,0.5,5.1,1,7.7c0.8,4,2,7.8,3.6,11.6
				c2.6,6,6.1,11.4,10.3,16.4c3.4,4.1,7.3,7.8,11.4,11.3c6.9,5.8,14.4,10.6,22.4,14.8c6.2,3.2,12.5,5.9,19.1,8.3
				c6.7,2.4,13.5,4.4,20.4,6c5.4,1.2,10.8,2.3,16.3,3.1c3.9,0.6,7.8,1,11.7,1.4c2.3,0.2,4.6,0.3,6.8,0.5c6.3,0.5,12.5,0.5,18.8,0.4
				c4.1-0.1,8.2-0.3,12.3-0.6c4.5-0.4,9-0.8,13.5-1.5c9.8-1.4,19.5-3.5,29-6.3c7.2-2.2,14.2-4.8,21.1-7.8c7.2-3.2,14.1-7,20.6-11.4
				c4.3-2.9,8.3-6.1,12.1-9.6c5.1-4.6,9.6-9.7,13.4-15.5c3.7-5.7,6.6-11.8,8.2-18.4c0.8-3.2,1.3-6.4,1.5-9.7
				c0.1-1.3,0.1-2.6,0.1-3.9c0.7-0.1,1,0.1,0.9,0.9c0,6.7,0,13.3,0,19.9c0,0.4,0.1,1.1-0.4,1.5c0,0.6-0.2,0.7-0.2,0.9
				c0,2.8-0.7,4.6-1.2,7.3c-1.3,7.3-4,14-7.8,20.3c-4.9,8.1-11.3,14.9-18.6,21c-10.3,8.7-22,15.2-34.5,20.4
				c-12.3,5.1-25,8.6-38.1,10.9c-7.4,1.3-14.9,2.2-22.4,2.8c-9,0.6-17.9,0.7-26.9,0.2c-6.6-0.3-13.1-0.9-19.6-1.9
				c-10.3-1.5-20.5-3.7-30.4-6.8c-13.2-4.1-25.7-9.5-37.4-17c-9.9-6.3-18.8-13.9-25.8-23.4c-4.9-6.6-8.6-13.8-10.6-21.8
				c-1-4-1.6-8.1-1.6-12.3C730.8,1194.6,730.8,1189.5,730.8,1184.3z"/>
			<path class="st8" d="M934.5,1171.1c-0.1,5.5-1.2,10.7-4.2,15.4c-1.5,2.4-3.4,4.5-6,5.9c-4.2,2.1-8.2,1.6-11.8-1.3
				c-3.6-2.8-5.5-6.6-6.8-10.8c-1.1-3.6-1.5-7.3-1.3-11.1c0.3-5.5,1.7-10.7,5.1-15.2c1.8-2.4,4-4.3,6.9-5.2
				c3.8-1.1,7.1-0.2,10.1,2.2c3.5,2.8,5.4,6.6,6.7,10.7C934.1,1164.7,934.4,1167.9,934.5,1171.1z"/>
			<path class="st8" d="M829.8,1170.5c0,5.3-0.9,10-3.2,14.3c-1.5,2.8-3.4,5.3-6.2,7c-4.1,2.5-8.7,2.2-12.5-0.7
				c-2.9-2.3-4.8-5.2-6.2-8.6c-1.8-4.5-2.4-9.2-2-14.1c0.4-5.4,1.9-10.6,5.4-14.9c2.2-2.7,4.8-4.7,8.4-5.2c2.9-0.4,5.5,0.5,7.8,2.2
				c3.4,2.5,5.4,6,6.7,9.8C829.2,1163.8,829.8,1167.3,829.8,1170.5z"/>
		</g>
	</g>
</g>
<text transform="matrix(1 0 0 1 95.9861 94.6751)" class="st4 st9 st10 st11">steps to buy </text>
<text transform="matrix(1 0 0 1 714.8161 94.6751)" class="st2 st9 st10 st11">$1BILL</text>
<text transform="matrix(1 0 0 1 191.1961 154.6751)" class="st4 st9 st10 st11">on pancake swap</text>
<g>
	<text transform="matrix(1 0 0 1 58.8484 323.9341)" class="st4 st12 st13 st14">1</text>
	<text transform="matrix(1 0 0 1 143.7678 300.3462)" class="st4 st12 st15">purchase </text>
	<text transform="matrix(1 0 0 1 326.6452 300.3462)" class="st4 st16 st15">bnb </text>
	<text transform="matrix(1 0 0 1 407.9309 300.3462)" class="st4 st12 st15">on trust wallet or metamask</text>
</g>
<g>
	<text transform="matrix(1 0 0 1 58.8484 715.3345)" class="st4 st12 st13 st14">5</text>
	<text transform="matrix(1 0 0 1 143.7678 691.7466)" class="st4 st12 st15">select </text>
	<text transform="matrix(1 0 0 1 286.0066 691.7466)" class="st4 st16 st15">bnb </text>
	<text transform="matrix(1 0 0 1 367.2839 691.7466)" class="st4 st12 st15">and the amount you wish to swap</text>
</g>
<g>
	<text transform="matrix(1 0 0 1 58.8484 813.186)" class="st4 st12 st13 st14">6</text>
	<text transform="matrix(1 0 0 1 143.7678 789.5981)" class="st4 st12 st15">in settings change slippage to </text>
	<text transform="matrix(1 0 0 1 813.6856 789.5981)" class="st4 st16 st15">15%</text>
</g>
<g>
	<text transform="matrix(1 0 0 1 58.8484 911.0366)" class="st4 st12 st13 st14">7</text>
	<text transform="matrix(1 0 0 1 143.7678 887.4487)" class="st4 st12 st15">hit</text>
	<text transform="matrix(1 0 0 1 204.7297 887.4487)" class="st2 st12 st15"> </text>
	<text transform="matrix(1 0 0 1 225.0442 887.4487)" class="st2 st16 st15">swap</text>
</g>
<g>
	<text transform="matrix(1 0 0 1 58.8484 421.6562)" class="st4 st12 st13 st14">2</text>
	<text transform="matrix(1 0 0 1 143.7678 398.0669)" class="st4 st12 st15">go to </text>
	<text transform="matrix(1 0 0 1 265.6921 398.0669)" class="st4 st16 st15">1billiontoken.com </text>
	<text transform="matrix(1 0 0 1 651.4471 398.0669)" class="st4 st12 st15">in your browser </text>
	<text transform="matrix(1 0 0 1 144.7678 439.9595)" class="st4 st12 st15">&amp; click the </text>
	<text transform="matrix(1 0 0 1 408.6932 439.9595)" class="st4 st16 st15">buy</text>
	<text transform="matrix(1 0 0 1 499.8471 439.9595)" class="st4 st12 st15">button</text>
</g>
<g>
	<text transform="matrix(1 0 0 1 58.8484 519.6348)" class="st4 st12 st13 st14">3</text>
	<text transform="matrix(1 0 0 1 143.7678 496.0464)" class="st4 st12 st15">connect wallet [</text>
	<text transform="matrix(1 0 0 1 491.2078 496.0464)" class="st4 st17 st15">upper-right corner</text>
	<text transform="matrix(1 0 0 1 881.9716 496.0464)" class="st4 st12 st15">]</text>
</g>
<g>
	<text transform="matrix(1 0 0 1 58.8484 617.4849)" class="st4 st12 st13 st14">4</text>
	<text transform="matrix(1 0 0 1 143.7678 593.8955)" class="st4 st12 st15">switch to v2 [</text>
	<text transform="matrix(1 0 0 1 444.245 593.8955)" class="st4 st17 st15">new version</text>
	<text transform="matrix(1 0 0 1 681.7714 593.8955)" class="st4 st12 st15">]</text>
</g>
</svg>
