<?xml version="1.0" standalone="no"?>
<!DOCTYPE svg PUBLIC "-//W3C//DTD SVG 20010904//EN"
 "http://www.w3.org/TR/2001/REC-SVG-20010904/DTD/svg10.dtd">
<svg version="1.0" xmlns="http://www.w3.org/2000/svg"
 width="854.000000pt" height="577.000000pt" viewBox="0 0 854.000000 577.000000"
 preserveAspectRatio="xMidYMid meet">

<g transform="translate(0.000000,577.000000) scale(0.100000,-0.100000)"
fill="#000000" stroke="none">
<path d="M4272 3824 l-22 -15 0 -539 0 -540 25 -16 c23 -15 27 -15 50 0 l25
16 0 500 0 500 208 0 c205 0 209 0 261 -26 92 -46 149 -150 139 -253 -5 -45
-18 -78 -64 -158 l-18 -31 31 -45 c59 -81 67 -184 22 -272 -29 -56 -56 -83
-114 -113 -45 -23 -64 -26 -190 -30 -77 -2 -146 -9 -152 -14 -18 -15 -16 -54
4 -74 15 -14 35 -16 163 -12 132 4 151 7 207 33 76 34 144 102 181 183 22 48
26 71 26 147 0 79 -4 97 -28 144 l-28 54 29 61 c24 53 28 73 28 151 0 80 -3
97 -31 156 -53 112 -142 178 -265 199 -35 5 -154 10 -264 10 -165 0 -204 -3
-223 -16z"/>
<path d="M3512 3818 c-19 -19 -15 -66 7 -78 12 -6 95 -10 200 -10 l181 0 0
-500 0 -500 25 -16 c23 -15 27 -15 50 0 l25 16 0 535 c0 472 -2 535 -16 549
-13 14 -49 16 -238 16 -159 0 -225 -3 -234 -12z"/>
<path d="M3523 3615 c-25 -18 -30 -54 -11 -73 7 -7 44 -12 95 -12 l82 0 3
-401 c3 -383 4 -401 22 -415 25 -18 37 -18 62 0 18 14 19 30 19 450 0 343 -3
438 -13 448 -9 9 -50 14 -125 16 -91 3 -116 0 -134 -13z"/>
<path d="M4478 3620 c-21 -13 -24 -60 -6 -78 8 -8 50 -12 123 -12 96 0 114 -3
128 -18 40 -44 4 -92 -70 -92 -45 0 -73 -19 -73 -50 0 -49 87 -67 168 -35 109
44 123 198 25 265 -33 23 -47 25 -157 28 -74 1 -128 -2 -138 -8z"/>
<path d="M4483 3205 c-25 -18 -30 -54 -11 -73 8 -8 49 -12 118 -12 116 0 150
-12 150 -54 0 -35 -30 -56 -83 -56 -51 0 -77 -18 -77 -55 0 -32 27 -45 90 -45
100 0 160 52 168 144 5 60 -21 107 -77 140 -48 28 -245 36 -278 11z"/>
<path d="M1632 2518 c3 -7 21 -14 41 -16 l37 -3 0 -105 c0 -86 3 -104 15 -104
12 0 15 18 15 104 l0 105 37 3 c20 2 38 9 41 16 3 9 -20 12 -93 12 -73 0 -96
-3 -93 -12z"/>
<path d="M2164 2496 c-30 -30 -34 -40 -34 -86 0 -46 4 -56 34 -86 30 -30 40
-34 86 -34 75 0 120 45 120 120 0 46 -4 56 -34 86 -30 30 -40 34 -86 34 -46 0
-56 -4 -86 -34z m130 3 c24 -11 56 -62 56 -89 0 -27 -32 -78 -56 -89 -39 -17
-70 -13 -103 15 -27 22 -31 32 -31 74 0 42 4 52 31 74 33 28 64 32 103 15z"/>
<path d="M3070 2515 c0 -10 11 -15 35 -15 l35 0 0 -105 c0 -87 3 -105 15 -105
12 0 15 18 15 105 l0 105 40 0 c29 0 40 4 40 15 0 12 -17 15 -90 15 -73 0 -90
-3 -90 -15z"/>
<path d="M3570 2410 c0 -100 3 -120 15 -120 12 0 15 13 15 55 l0 55 65 0 65 0
0 -55 c0 -30 5 -55 10 -55 6 0 10 47 10 120 0 73 -4 120 -10 120 -5 0 -10 -22
-10 -50 l0 -50 -65 0 -65 0 0 50 c0 38 -4 50 -15 50 -12 0 -15 -20 -15 -120z"/>
<path d="M4104 2517 c-2 -7 -3 -60 -2 -118 l3 -104 78 -3 c61 -2 78 0 75 10
-3 8 -27 14 -66 16 l-62 3 0 39 0 40 55 0 c42 0 55 3 55 15 0 12 -13 15 -55
15 l-55 0 0 35 0 35 60 0 c47 0 60 3 60 15 0 20 -138 22 -146 2z"/>
<path d="M4970 2411 c0 -100 3 -121 15 -121 11 0 15 20 17 98 l3 97 41 -94
c22 -52 45 -96 50 -98 5 -2 27 41 49 95 l40 97 3 -97 c2 -78 6 -98 17 -98 12
0 15 21 15 121 0 116 -1 120 -21 117 -15 -2 -30 -25 -58 -88 -21 -47 -41 -85
-45 -85 -4 0 -24 38 -44 85 -29 66 -43 86 -60 88 -22 3 -22 2 -22 -117z"/>
<path d="M5601 2504 c-89 -74 -38 -214 78 -214 53 0 84 18 106 60 29 55 12
130 -37 164 -36 26 -111 21 -147 -10z m140 -23 c62 -62 20 -171 -66 -171 -41
0 -80 32 -91 74 -24 97 88 166 157 97z"/>
<path d="M6171 2505 c-44 -38 -57 -86 -37 -139 20 -51 58 -76 118 -76 50 0 82
19 103 60 29 55 12 130 -37 164 -36 26 -111 21 -147 -9z m140 -24 c62 -62 20
-171 -66 -171 -60 0 -106 63 -91 126 19 74 103 98 157 45z"/>
<path d="M6710 2410 c0 -147 18 -163 22 -19 l3 101 69 -101 c96 -140 106 -138
106 19 0 100 -2 120 -15 120 -12 0 -15 -18 -15 -102 l0 -102 -71 102 c-38 56
-77 102 -85 102 -11 0 -14 -22 -14 -120z"/>
</g>
</svg>
