<?xml version="1.0" encoding="utf-8"?>
<!-- Generator: Adobe Illustrator 25.2.3, SVG Export Plug-In . SVG Version: 6.00 Build 0)  -->
<svg version="1.1" xmlns="http://www.w3.org/2000/svg" xmlns:xlink="http://www.w3.org/1999/xlink" x="0px" y="0px"
	 viewBox="0 0 432 398" style="enable-background:new 0 0 432 398;" xml:space="preserve">
<style type="text/css">
	.st0{fill:#4102CD;}
	.st1{fill:#DF00E2;}
	.st2{fill:#4B3DEA;}
</style>
<g id="Layer_1">
</g>
<g id="Layer_2">
	<path class="st0" d="M53.45,360.96h56.09v-257.7c0,0,5.02-62.12-56.09-62.12H27.5v56.93h26.79L53.45,360.96z"/>
	<g>
		<path class="st1" d="M362.43,187.02c9.33-15.45,14.07-34.5,14.07-56.95c0-24.46-8.12-45.42-23.47-60.61
			c-25.47-25.2-61.43-25.88-66.26-25.85H169.66v52h117.21l-0.09,0.01l0.26-0.01c1.21,0.03,11.92,0.42,21.65,5.35
			c7.36,3.73,15.81,10.41,15.81,29.11c0,16.7-3.86,28.9-11.48,36.26c-9.85,9.52-24.51,9.72-26.36,9.7l-0.33-0.03h-92.39l124.04,0.53
			C321.52,176.51,341.81,176.88,362.43,187.02z"/>
		<path class="st0" d="M384.24,202.38c-6.79-6.72-14.32-11.68-21.81-15.36c-3.89,6.45-8.57,12.28-14.07,17.45
			c-22.88,21.52-51.44,23.56-61.44,23.56c-0.93,0-1.7-0.02-2.29-0.04h-90.69l124.14,0.53l-0.09,0.01l0.26-0.01
			c1.21,0.03,11.92,0.42,21.65,5.35c7.36,3.73,15.81,10.41,15.81,29.11c0,16.7-3.86,28.9-11.48,36.26
			c-9.85,9.52-24.51,9.72-26.36,9.7l-0.33-0.03h-123.6v52h121.9c0.59,0.02,1.36,0.04,2.29,0.04c10.01,0,38.57-2.04,61.44-23.56
			c18.67-17.56,28.13-42.59,28.13-74.4C407.7,238.53,399.59,217.57,384.24,202.38z"/>
		<path class="st2" d="M286.92,228.04c10.01,0,38.57-2.04,61.44-23.56c5.5-5.17,10.17-11.01,14.07-17.45
			c-17.98-10.39-29.98-11.64-44.45-11.64L193.94,176v52h90.69C285.22,228.02,285.99,228.04,286.92,228.04z"/>
	</g>
</g>
</svg>
