<?xml version="1.0" standalone="no"?>
<!DOCTYPE svg PUBLIC "-//W3C//DTD SVG 20010904//EN"
 "http://www.w3.org/TR/2001/REC-SVG-20010904/DTD/svg10.dtd">
<svg version="1.0" xmlns="http://www.w3.org/2000/svg"
 width="532.000000pt" height="158.000000pt" viewBox="0 0 532.000000 158.000000"
 preserveAspectRatio="xMidYMid meet">

<g transform="translate(0.000000,158.000000) scale(0.100000,-0.100000)"
fill="#000000" stroke="none">
<path d="M2662 1554 l-22 -15 0 -539 0 -540 25 -16 c23 -15 27 -15 50 0 l25
16 0 500 0 500 208 0 c205 0 209 0 261 -27 85 -42 139 -130 140 -230 1 -42 -7
-66 -41 -132 l-42 -81 32 -45 c58 -83 66 -183 21 -270 -29 -56 -56 -83 -114
-112 -45 -23 -65 -26 -190 -31 -77 -2 -146 -9 -152 -14 -18 -15 -16 -54 4 -74
15 -14 35 -16 163 -12 132 4 151 7 207 33 76 34 144 102 181 183 22 48 26 71
26 147 0 79 -4 97 -28 144 l-28 54 29 61 c24 53 28 73 28 151 0 80 -3 97 -31
156 -53 112 -142 178 -265 199 -35 5 -154 10 -264 10 -165 0 -204 -3 -223 -16z"/>
<path d="M1902 1548 c-19 -19 -15 -66 7 -78 12 -6 95 -10 200 -10 l181 0 0
-500 0 -500 25 -16 c23 -15 27 -15 50 0 l25 16 0 535 c0 472 -2 535 -16 549
-13 14 -49 16 -238 16 -159 0 -225 -3 -234 -12z"/>
<path d="M1907 1342 c-20 -22 -22 -53 -5 -70 7 -7 44 -12 95 -12 l82 0 3 -401
c3 -383 4 -401 22 -415 25 -18 37 -18 62 0 18 14 19 30 19 450 0 343 -3 438
-13 448 -9 9 -51 14 -130 16 -105 3 -119 2 -135 -16z"/>
<path d="M2868 1350 c-21 -13 -24 -60 -6 -78 8 -8 50 -12 123 -12 96 0 114 -3
128 -18 40 -44 4 -92 -70 -92 -65 0 -96 -46 -55 -83 24 -22 99 -22 150 -2 109
44 123 198 25 265 -33 23 -47 25 -157 28 -74 1 -128 -2 -138 -8z"/>
<path d="M2880 938 c-28 -15 -38 -52 -20 -74 10 -10 38 -14 119 -14 117 0 151
-12 151 -54 0 -34 -30 -56 -79 -56 -58 0 -81 -14 -81 -50 0 -37 23 -50 90 -50
100 0 160 52 168 144 5 60 -21 107 -77 140 -44 25 -231 35 -271 14z"/>
<path d="M22 248 c3 -7 21 -14 41 -16 l37 -3 0 -105 c0 -86 3 -104 15 -104 12
0 15 18 15 104 l0 105 37 3 c20 2 38 9 41 16 3 9 -20 12 -93 12 -73 0 -96 -3
-93 -12z"/>
<path d="M554 226 c-30 -30 -34 -40 -34 -86 0 -46 4 -56 34 -86 30 -30 40 -34
86 -34 46 0 56 4 86 34 30 30 34 40 34 86 0 46 -4 56 -34 86 -30 30 -40 34
-86 34 -46 0 -56 -4 -86 -34z m148 -15 c27 -24 33 -36 33 -71 0 -35 -6 -47
-33 -71 -42 -38 -82 -38 -123 -1 -26 24 -32 36 -32 72 0 36 6 48 32 72 41 37
81 37 123 -1z"/>
<path d="M1460 245 c0 -10 11 -15 35 -15 l35 0 0 -82 c0 -88 7 -128 21 -128 5
0 9 47 9 105 l0 105 40 0 c29 0 40 4 40 15 0 12 -17 15 -90 15 -73 0 -90 -3
-90 -15z"/>
<path d="M1960 140 c0 -100 3 -120 15 -120 12 0 15 13 15 55 l0 55 65 0 65 0
0 -55 c0 -30 5 -55 10 -55 6 0 10 47 10 120 0 73 -4 120 -10 120 -5 0 -10 -22
-10 -50 l0 -50 -65 0 -65 0 0 50 c0 38 -4 50 -15 50 -12 0 -15 -20 -15 -120z"/>
<path d="M2497 253 c-2 -5 -3 -57 -3 -118 l1 -110 78 -3 c48 -2 77 1 77 8 0 5
-21 11 -47 12 -27 0 -55 1 -63 2 -10 1 -16 14 -18 44 l-3 42 55 0 c43 0 56 3
56 15 0 12 -13 15 -55 15 l-55 0 0 35 0 35 60 0 c47 0 60 3 60 15 0 12 -14 15
-69 15 -39 0 -71 -3 -74 -7z"/>
<path d="M3367 254 c-4 -4 -7 -58 -7 -121 0 -94 3 -113 15 -113 12 0 15 18 15
103 l1 102 42 -98 c24 -55 47 -99 52 -99 6 0 28 41 50 93 l40 93 3 -97 c2 -77
6 -97 17 -97 12 0 15 21 15 121 0 117 -1 120 -21 117 -17 -2 -31 -23 -58 -87
-20 -46 -40 -84 -44 -85 -4 0 -25 37 -45 84 -34 78 -56 102 -75 84z"/>
<path d="M3991 234 c-89 -74 -38 -214 78 -214 53 0 84 18 106 60 29 55 12 130
-37 164 -36 26 -111 21 -147 -10z m140 -23 c23 -23 29 -38 29 -71 0 -102 -129
-139 -175 -50 -53 103 66 201 146 121z"/>
<path d="M4561 235 c-45 -38 -57 -86 -36 -141 20 -52 54 -74 117 -74 70 0 118
50 118 122 0 100 -122 157 -199 93z m140 -24 c62 -62 20 -171 -66 -171 -60 0
-106 63 -91 126 19 74 103 98 157 45z"/>
<path d="M5100 140 c0 -147 18 -163 22 -19 l3 101 69 -101 c96 -140 106 -138
106 19 0 100 -2 120 -15 120 -12 0 -15 -18 -15 -102 l0 -102 -71 102 c-38 56
-77 102 -85 102 -11 0 -14 -22 -14 -120z"/>
</g>
</svg>
