<?xml version="1.0" encoding="utf-8"?>
<!-- Generator: Adobe Illustrator 25.2.3, SVG Export Plug-In . SVG Version: 6.00 Build 0)  -->
<svg version="1.1" id="Layer_1" xmlns="http://www.w3.org/2000/svg" xmlns:xlink="http://www.w3.org/1999/xlink" x="0px" y="0px"
	 viewBox="0 0 432 169.7" style="enable-background:new 0 0 432 169.7;" xml:space="preserve">
<style type="text/css">
	.st0{fill:#4102CD;}
	.st1{fill:#DF00E2;}
	.st2{fill:#4B3DEA;}
	.st3{fill:#FFFFFF;}
</style>
<g id="Layer_2_2_">
	<path class="st0" d="M160.7,121.6h18.8V35.2c0,0,1.7-20.8-18.8-20.8H152v19.1h9L160.7,121.6z"/>
	<g>
		<path class="st1" d="M264.3,63.3c3.1-5.2,4.7-11.6,4.7-19.1c0-8.2-2.7-15.2-7.9-20.3c-8.5-8.4-20.6-8.7-22.2-8.7h-39.3v17.4H239
			l0,0l0.1,0c0.4,0,4,0.1,7.3,1.8c2.5,1.3,5.3,3.5,5.3,9.8c0,5.6-1.3,9.7-3.8,12.2c-3.3,3.2-8.2,3.3-8.8,3.3l-0.1,0h-31l41.6,0.2
			C250.6,59.7,257.4,59.9,264.3,63.3z"/>
		<path class="st0" d="M271.6,68.4c-2.3-2.3-4.8-3.9-7.3-5.1c-1.3,2.2-2.9,4.1-4.7,5.8c-7.7,7.2-17.2,7.9-20.6,7.9
			c-0.3,0-0.6,0-0.8,0h-30.4l41.6,0.2l0,0l0.1,0c0.4,0,4,0.1,7.3,1.8c2.5,1.3,5.3,3.5,5.3,9.8c0,5.6-1.3,9.7-3.8,12.2
			c-3.3,3.2-8.2,3.3-8.8,3.3l-0.1,0h-41.4v17.4h40.9c0.2,0,0.5,0,0.8,0c3.4,0,12.9-0.7,20.6-7.9c6.3-5.9,9.4-14.3,9.4-24.9
			C279.5,80.5,276.8,73.5,271.6,68.4z"/>
		<path class="st2" d="M239,77c3.4,0,12.9-0.7,20.6-7.9c1.8-1.7,3.4-3.7,4.7-5.8c-6-3.5-10-3.9-14.9-3.9l-41.6,0.2V77h30.4
			C238.4,77,238.7,77,239,77z"/>
	</g>
</g>
<g>
	<path class="st1" d="M17.9,155.5h-2.1v-18.6H8.9V135h15.8v1.9h-6.9V155.5z"/>
	<path class="st1" d="M67.6,145.2c0,1.6-0.3,3-0.8,4.3c-0.5,1.3-1.3,2.4-2.2,3.4s-2.1,1.7-3.4,2.2c-1.3,0.5-2.7,0.8-4.2,0.8
		c-1.5,0-2.9-0.3-4.2-0.8c-1.3-0.5-2.4-1.3-3.4-2.2c-1-1-1.7-2.1-2.2-3.4c-0.5-1.3-0.8-2.7-0.8-4.3s0.3-3,0.8-4.3
		c0.5-1.3,1.3-2.4,2.2-3.4c1-1,2.1-1.7,3.4-2.2c1.3-0.5,2.7-0.8,4.2-0.8c1.5,0,2.9,0.3,4.2,0.8c1.3,0.5,2.4,1.3,3.4,2.2
		s1.7,2.1,2.2,3.4C67.4,142.2,67.6,143.7,67.6,145.2z M65.4,145.2c0-1.2-0.2-2.3-0.6-3.4c-0.4-1.1-0.9-2-1.7-2.8
		c-0.7-0.8-1.6-1.5-2.7-1.9c-1.1-0.5-2.2-0.7-3.5-0.7c-1.3,0-2.5,0.2-3.5,0.7c-1.1,0.5-1.9,1.1-2.7,1.9c-0.7,0.8-1.3,1.8-1.7,2.8
		c-0.4,1.1-0.6,2.2-0.6,3.4c0,1.2,0.2,2.3,0.6,3.4c0.4,1.1,0.9,2,1.7,2.8c0.7,0.8,1.6,1.5,2.7,1.9c1.1,0.5,2.2,0.7,3.5,0.7
		c1.3,0,2.5-0.2,3.5-0.7s1.9-1.1,2.7-1.9c0.7-0.8,1.3-1.8,1.7-2.8C65.2,147.6,65.4,146.4,65.4,145.2z"/>
	<path class="st1" d="M127.4,155.5h-2.1v-18.6h-6.9V135h15.8v1.9h-6.9V155.5z"/>
	<path class="st1" d="M158.1,135h2.1v8.9h11.2V135h2.1v20.5h-2.1v-9.7h-11.2v9.7h-2.1V135z"/>
	<path class="st1" d="M201.6,153.6h11v1.9h-13V135h12.7v1.9h-10.6v7h9.9v1.9h-9.9V153.6z"/>
	<path class="st1" d="M275.6,151.9L275.6,151.9l6.9-16.9h3.2v20.5h-2.1v-17.8h-0.1l-7.4,17.8H275l-7.4-17.8h-0.1v17.8h-2.1V135h3.2
		L275.6,151.9z"/>
	<path class="st1" d="M332,145.2c0,1.6-0.3,3-0.8,4.3c-0.5,1.3-1.3,2.4-2.2,3.4c-1,1-2.1,1.7-3.4,2.2c-1.3,0.5-2.7,0.8-4.2,0.8
		c-1.5,0-2.9-0.3-4.2-0.8c-1.3-0.5-2.4-1.3-3.4-2.2s-1.7-2.1-2.2-3.4c-0.5-1.3-0.8-2.7-0.8-4.3s0.3-3,0.8-4.3
		c0.5-1.3,1.3-2.4,2.2-3.4s2.1-1.7,3.4-2.2c1.3-0.5,2.7-0.8,4.2-0.8c1.5,0,2.9,0.3,4.2,0.8c1.3,0.5,2.4,1.3,3.4,2.2
		c1,1,1.7,2.1,2.2,3.4C331.7,142.2,332,143.7,332,145.2z M329.8,145.2c0-1.2-0.2-2.3-0.6-3.4c-0.4-1.1-0.9-2-1.7-2.8
		c-0.7-0.8-1.6-1.5-2.7-1.9c-1.1-0.5-2.2-0.7-3.5-0.7c-1.3,0-2.5,0.2-3.5,0.7c-1.1,0.5-1.9,1.1-2.7,1.9c-0.7,0.8-1.3,1.8-1.7,2.8
		s-0.6,2.2-0.6,3.4c0,1.2,0.2,2.3,0.6,3.4s0.9,2,1.7,2.8c0.7,0.8,1.6,1.5,2.7,1.9s2.2,0.7,3.5,0.7c1.3,0,2.5-0.2,3.5-0.7
		s1.9-1.1,2.7-1.9c0.7-0.8,1.3-1.8,1.7-2.8C329.6,147.6,329.8,146.4,329.8,145.2z"/>
	<path class="st1" d="M377.2,145.2c0,1.6-0.3,3-0.8,4.3c-0.5,1.3-1.3,2.4-2.2,3.4c-1,1-2.1,1.7-3.4,2.2c-1.3,0.5-2.7,0.8-4.2,0.8
		c-1.5,0-2.9-0.3-4.2-0.8c-1.3-0.5-2.4-1.3-3.4-2.2s-1.7-2.1-2.2-3.4c-0.5-1.3-0.8-2.7-0.8-4.3s0.3-3,0.8-4.3
		c0.5-1.3,1.3-2.4,2.2-3.4s2.1-1.7,3.4-2.2c1.3-0.5,2.7-0.8,4.2-0.8c1.5,0,2.9,0.3,4.2,0.8c1.3,0.5,2.4,1.3,3.4,2.2
		c1,1,1.7,2.1,2.2,3.4C377,142.2,377.2,143.7,377.2,145.2z M375,145.2c0-1.2-0.2-2.3-0.6-3.4c-0.4-1.1-0.9-2-1.7-2.8
		c-0.7-0.8-1.6-1.5-2.7-1.9c-1.1-0.5-2.2-0.7-3.5-0.7c-1.3,0-2.5,0.2-3.5,0.7c-1.1,0.5-1.9,1.1-2.7,1.9c-0.7,0.8-1.3,1.8-1.7,2.8
		s-0.6,2.2-0.6,3.4c0,1.2,0.2,2.3,0.6,3.4s0.9,2,1.7,2.8c0.7,0.8,1.6,1.5,2.7,1.9s2.2,0.7,3.5,0.7c1.3,0,2.5-0.2,3.5-0.7
		s1.9-1.1,2.7-1.9c0.7-0.8,1.3-1.8,1.7-2.8C374.8,147.6,375,146.4,375,145.2z"/>
	<path class="st1" d="M416.7,152.4L416.7,152.4l0.1-17.4h2.1v20.5h-2.6l-11.9-17.6h-0.1v17.6h-2.1V135h2.6L416.7,152.4z"/>
</g>
</svg>
